<svg width="32" height="32" viewBox="0 0 32 32" fill="none" xmlns="http://www.w3.org/2000/svg">
<path d="M32 16C32 12.8355 31.0616 9.74207 29.3035 7.11088C27.5454 4.4797 25.0466 2.42894 22.1229 1.21793C19.1993 0.00693228 15.9823 -0.309921 12.8786 0.307443C9.77486 0.924806 6.92394 2.44866 4.6863 4.6863C2.44866 6.92394 0.924807 9.77486 0.307443 12.8786C-0.30992 15.9823 0.00693248 19.1993 1.21793 22.1229C2.42894 25.0466 4.4797 27.5454 7.11088 29.3035C9.74207 31.0616 12.8355 32 16 32C20.2419 31.995 24.3087 30.3077 27.3082 27.3082C30.3077 24.3087 31.995 20.2419 32 16ZM1.88236 16C1.88236 13.2078 2.71035 10.4783 4.26161 8.15666C5.81288 5.83503 8.01775 4.02553 10.5974 2.957C13.1771 1.88847 16.0157 1.60889 18.7542 2.15363C21.4928 2.69836 24.0083 4.04293 25.9827 6.01732C27.9571 7.99171 29.3016 10.5072 29.8464 13.2458C30.3911 15.9843 30.1115 18.8229 29.043 21.4026C27.9745 23.9823 26.165 26.1871 23.8433 27.7384C21.5217 29.2897 18.7922 30.1176 16 30.1176C12.257 30.1135 8.66858 28.6248 6.02191 25.9781C3.37524 23.3314 1.88651 19.743 1.88236 16ZM21.6847 21.6847C21.5082 21.861 21.269 21.96 21.0196 21.96C20.7702 21.96 20.531 21.861 20.3545 21.6847L11.9216 13.2533L11.9216 18.5098C11.9216 18.7594 11.8224 18.9988 11.6459 19.1753C11.4694 19.3518 11.23 19.451 10.9804 19.451C10.7308 19.451 10.4914 19.3518 10.3149 19.1753C10.1384 18.9988 10.0392 18.7594 10.0392 18.5098L10.0392 10.9804C10.0392 10.7308 10.1384 10.4914 10.3149 10.3149C10.4914 10.1384 10.7308 10.0392 10.9804 10.0392H18.5098C18.7594 10.0392 18.9988 10.1384 19.1753 10.3149C19.3518 10.4914 19.451 10.7308 19.451 10.9804C19.451 11.23 19.3518 11.4694 19.1753 11.6459C18.9988 11.8224 18.7594 11.9216 18.5098 11.9216H13.2533L21.6847 20.3545C21.861 20.531 21.96 20.7702 21.96 21.0196C21.96 21.269 21.861 21.5082 21.6847 21.6847Z" fill="#FFFDF8"/>
</svg>
