<svg width="123" height="123" viewBox="0 0 123 123" fill="none" xmlns="http://www.w3.org/2000/svg">
<path d="M0.879883 98.0088C14.0087 98.3415 24.5636 109.023 24.6953 122.201H22.7393C22.6055 109.893 12.5886 99.9572 0.249023 99.957C0.165902 99.957 0.0829085 99.9591 0 99.96V98.0029C0.0829137 98.0021 0.165914 98 0.249023 98L0.879883 98.0088Z" fill="#8B3A1F"/>
<path d="M0.249023 0C67.6823 0 122.362 54.5982 122.496 122H120.54C120.406 55.6785 66.602 1.95605 0.249023 1.95605C0.165995 1.95605 0.0829886 1.95686 0 1.95703V0.000976562C0.0829912 0.000810979 0.165994 1.11585e-07 0.249023 0Z" fill="#8B3A1F"/>
<path d="M1.5127 24.0078C54.8601 24.6836 97.9121 68.0734 98.0459 121.55H96.0898C95.955 68.7321 53.0983 25.9563 0.249023 25.9561C0.16599 25.9561 0.0829836 25.9568 0 25.957V24.001C0.0829845 24.0008 0.16599 24 0.249023 24L1.5127 24.0078Z" fill="#8B3A1F"/>
<path d="M1.19629 49.0068C41.1861 49.5135 73.4622 82.0219 73.5957 122.101H71.6396C71.5051 82.7858 39.5944 50.9571 0.248047 50.957C0.16533 50.957 0.0826505 50.9577 0 50.958V49.001C0.0826506 49.0007 0.165332 49 0.248047 49L1.19629 49.0068Z" fill="#8B3A1F"/>
<path d="M0.249023 73C27.1724 73 49.0132 94.7585 49.1475 121.65H47.1914C47.0572 95.8388 26.0922 74.9561 0.249023 74.9561C0.165964 74.9561 0.0829576 74.9566 0 74.957V73.001C0.0829599 73.0006 0.165966 73 0.249023 73Z" fill="#8B3A1F"/>
</svg>
