<svg width="38" height="41" viewBox="0 0 38 41" fill="none" xmlns="http://www.w3.org/2000/svg">
<g filter="url(#filter0_f_670_1399)" style="mix-blend-mode:lighten">
<path d="M37.5001 18.62H32.1184V40.5H6.65813V18.62H1.27637L7.9311 11.9622V1.13999H14.2962V5.59432L19.3882 0.5L37.5001 18.62ZM21.7942 16.1318C20.8777 16.1318 20.0019 16.5737 19.356 17.3545C18.0016 15.7172 15.8079 15.7247 14.4612 17.3773C13.1262 19.0155 13.1262 21.6562 14.4612 23.2944L18.5921 28.3637C18.9958 28.8591 19.6651 28.8764 20.0871 28.4024C20.0875 28.402 20.0879 28.4015 20.0883 28.401C21.5258 26.7622 22.877 24.9804 24.2509 23.2944C24.8939 22.5057 25.2524 21.4416 25.2524 20.3359C25.2524 19.2301 24.8939 18.166 24.2509 17.3772C23.6033 16.5822 22.7194 16.1318 21.7942 16.1318Z" fill="#FF0000"/>
</g>
<g filter="url(#filter1_f_670_1399)" style="mix-blend-mode:lighten">
<path d="M36.5977 18.62H31.3688V40.5H6.63132V18.62H1.40234L7.8682 11.9622V1.13999H14.0526V5.59427L19 0.5L36.5977 18.62ZM21.3376 16.1318C20.4472 16.1318 19.5963 16.5737 18.9687 17.3545C17.6527 15.7172 15.5213 15.7247 14.2129 17.3773C12.9158 19.0155 12.9158 21.6562 14.2129 23.2944L18.2265 28.3637C18.6187 28.8591 19.2691 28.8764 19.679 28.4024C19.6794 28.402 19.6799 28.4015 19.6803 28.401C21.0769 26.7622 22.3898 24.9804 23.7247 23.2944C24.3494 22.5057 24.6977 21.4416 24.6977 20.3359C24.6977 19.2301 24.3494 18.166 23.7246 17.3772C23.0954 16.5822 22.2366 16.1318 21.3376 16.1318Z" fill="#00FF00"/>
</g>
<g filter="url(#filter2_f_670_1399)" style="mix-blend-mode:lighten">
<path d="M35.6953 18.62H30.4664V40.5H5.72901V18.62H0.5L6.96568 11.9623L6.96572 1.13999H13.1501V5.59441L18.0977 0.5L35.6953 18.62ZM20.435 16.1318C19.5446 16.1318 18.6936 16.5737 18.0661 17.3545C16.7501 15.7172 14.6187 15.7247 13.3102 17.3773C12.0132 19.0155 12.0132 21.6562 13.3102 23.2944L17.3238 28.3637C17.7161 28.8591 18.3664 28.8764 18.7764 28.4024C18.7768 28.402 18.7772 28.4015 18.7776 28.401C20.1742 26.7622 21.4871 24.9804 22.822 23.2944C23.4467 22.5057 23.7951 21.4416 23.7951 20.3359C23.7951 19.2301 23.4467 18.166 22.822 17.3772C22.1927 16.5822 21.334 16.1318 20.435 16.1318Z" fill="#0000FF"/>
</g>
<defs>
<filter id="filter0_f_670_1399" x="0.776367" y="0" width="37.2236" height="41" filterUnits="userSpaceOnUse" color-interpolation-filters="sRGB">
<feFlood flood-opacity="0" result="BackgroundImageFix"/>
<feBlend mode="normal" in="SourceGraphic" in2="BackgroundImageFix" result="shape"/>
<feGaussianBlur stdDeviation="0.25" result="effect1_foregroundBlur_670_1399"/>
</filter>
<filter id="filter1_f_670_1399" x="0.902344" y="0" width="36.1953" height="41" filterUnits="userSpaceOnUse" color-interpolation-filters="sRGB">
<feFlood flood-opacity="0" result="BackgroundImageFix"/>
<feBlend mode="normal" in="SourceGraphic" in2="BackgroundImageFix" result="shape"/>
<feGaussianBlur stdDeviation="0.25" result="effect1_foregroundBlur_670_1399"/>
</filter>
<filter id="filter2_f_670_1399" x="0" y="0" width="36.1953" height="41" filterUnits="userSpaceOnUse" color-interpolation-filters="sRGB">
<feFlood flood-opacity="0" result="BackgroundImageFix"/>
<feBlend mode="normal" in="SourceGraphic" in2="BackgroundImageFix" result="shape"/>
<feGaussianBlur stdDeviation="0.25" result="effect1_foregroundBlur_670_1399"/>
</filter>
</defs>
</svg>
