<svg width="1613" height="3333" viewBox="0 0 1613 3333" fill="none" xmlns="http://www.w3.org/2000/svg">
<circle cx="472" cy="820" r="56" stroke="#8B3A1F" stroke-opacity="0.11" stroke-width="2"/>
<circle cx="472" cy="820" r="169" stroke="#8B3A1F" stroke-opacity="0.11" stroke-width="2"/>
<circle cx="472" cy="820" r="112" stroke="#8B3A1F" stroke-opacity="0.11" stroke-width="2"/>
<circle cx="472" cy="820" r="282" stroke="#8B3A1F" stroke-opacity="0.11" stroke-width="2"/>
<circle cx="472" cy="820" r="225" stroke="#8B3A1F" stroke-opacity="0.11" stroke-width="2"/>
<circle cx="233" cy="1548" r="47" stroke="#8B3A1F" stroke-opacity="0.11" stroke-width="2"/>
<circle cx="238" cy="1548" r="142" stroke="#8B3A1F" stroke-opacity="0.11" stroke-width="2"/>
<circle cx="233" cy="1548" r="94" stroke="#8B3A1F" stroke-opacity="0.11" stroke-width="2"/>
<circle cx="238" cy="1548" r="237" stroke="#8B3A1F" stroke-opacity="0.11" stroke-width="2"/>
<circle cx="238" cy="1548" r="189" stroke="#8B3A1F" stroke-opacity="0.11" stroke-width="2"/>
<path d="M890.5 2825C937.163 2825 975 2863.05 975 2910C975 2956.95 937.163 2995 890.5 2995C843.837 2995 806 2956.95 806 2910C806 2863.05 843.837 2825 890.5 2825Z" stroke="#8B3A1F" stroke-opacity="0.11" stroke-width="2"/>
<circle cx="899" cy="2910" r="253" stroke="#8B3A1F" stroke-opacity="0.11" stroke-width="2"/>
<path d="M890 2741C982.781 2741 1058 2816.44 1058 2909.5C1058 3002.56 982.781 3078 890 3078C797.219 3078 722 3002.56 722 2909.5C722 2816.44 797.219 2741 890 2741Z" stroke="#8B3A1F" stroke-opacity="0.11" stroke-width="2"/>
<circle cx="899" cy="2910" r="422" stroke="#8B3A1F" stroke-opacity="0.11" stroke-width="2"/>
<circle cx="899" cy="2910" r="337" stroke="#8B3A1F" stroke-opacity="0.11" stroke-width="2"/>
<circle cx="1164.27" cy="439.797" r="87.2449" stroke="#8B3A1F" stroke-opacity="0.11" stroke-width="2.38213"/>
<circle cx="1173.5" cy="439.501" r="263.224" stroke="#8B3A1F" stroke-opacity="0.11" stroke-width="2.38211"/>
<circle cx="1164.27" cy="439.797" r="174.192" stroke="#8B3A1F" stroke-opacity="0.11" stroke-width="2.38212"/>
<circle cx="1173.5" cy="439.5" r="438.309" stroke="#8B3A1F" stroke-opacity="0.11" stroke-width="2.38211"/>
<circle cx="1173.5" cy="439.5" r="350.171" stroke="#8B3A1F" stroke-opacity="0.11" stroke-width="2.38211"/>
</svg>
